<svg width="126" height="195" viewBox="0 0 126 195" fill="none" xmlns="http://www.w3.org/2000/svg">
<path d="M40.4742 0C34.4048 0 32.3784 1.36596 32.3784 8.0958V14.1651H14.1651C2.20416 14.1651 0 16.3745 0 28.3303V180.105C0 192.066 2.20942 194.27 14.1651 194.27H111.3C123.261 194.27 125.465 192.061 125.465 180.105V28.3303C125.465 16.3693 123.256 14.1651 111.3 14.1651H93.087V8.0958C93.087 1.37122 91.0654 0 84.9912 0H40.4742ZM14.1651 42.5006C14.1651 26.3088 12.1435 28.3355 28.3303 28.3355H97.1349C113.327 28.3355 111.3 26.3139 111.3 42.5006V165.945C111.3 182.137 113.322 180.11 97.1349 180.11H28.3303C12.1384 180.11 14.1651 182.132 14.1651 165.945V42.5006ZM24.2826 34.4056H101.181C103.416 34.4056 105.228 36.2176 105.228 38.4529V60.7131C105.228 62.9482 103.416 64.7604 101.181 64.7604H24.2821C22.047 64.7604 20.2349 62.948 20.2349 60.7131V38.4529C20.2349 36.2174 22.0472 34.4056 24.2821 34.4056H24.2826ZM24.2826 70.8313H101.181C103.416 70.8313 105.228 72.6433 105.228 74.8786V97.1387C105.228 99.3738 103.416 101.186 101.181 101.186H24.2821C22.047 101.186 20.2349 99.3736 20.2349 97.1387V74.8786C20.2349 72.6431 22.0472 70.8313 24.2821 70.8313H24.2826ZM24.2826 107.257H101.181C103.416 107.257 105.228 109.069 105.228 111.304V133.564C105.228 135.8 103.416 137.612 101.181 137.612H24.2821C22.047 137.612 20.2349 135.799 20.2349 133.564V111.304C20.2349 109.069 22.0472 107.257 24.2821 107.257H24.2826ZM24.2826 143.682H101.181C103.416 143.682 105.228 145.494 105.228 147.73V169.99C105.228 172.225 103.416 174.037 101.181 174.037H24.2821C22.047 174.037 20.2349 172.225 20.2349 169.99V147.73C20.2349 145.494 22.0472 143.682 24.2821 143.682H24.2826Z" fill="#0095A8"/>
</svg>
