<svg width="126" height="117" viewBox="0 0 126 117" fill="none" xmlns="http://www.w3.org/2000/svg">
<path d="M39.2331 65.3833L30.0747 49.6644L39.2334 33.9458H57.5502L66.7086 49.6644L57.5499 65.3833H39.2331ZM68.6616 49.4153L59.5034 33.6966L68.662 17.9778H86.9788L96.1374 33.6966L86.9788 49.4153H68.6616ZM9.15895 48.5345L0 32.816L9.15868 17.0971H27.4761L36.6343 32.8159L27.4757 48.5345H9.15868H9.15895ZM38.8018 31.4374L29.6434 15.7188L38.8021 0H57.1189L66.2774 15.7186L57.1187 31.4374H38.8018ZM68.4434 116.461L59.2851 100.742L68.4438 85.0236H86.7605L95.9192 100.742L86.7605 116.461H68.4434ZM97.3348 99.4257L88.1765 83.7071L97.3352 67.9883H115.652L124.811 83.707L115.652 99.4257H97.3348ZM39.2331 98.9957L30.0747 83.277L39.2334 67.5582H57.5502L66.7086 83.277L57.5499 98.9957H39.2331ZM68.4434 82.6221L59.2851 66.9034L68.4438 51.1846H86.7605L95.9192 66.9035L86.7605 82.6222H68.4434V82.6221ZM10.0319 82.5816L0.873525 66.8624L10.0319 51.1437H28.3488L37.5072 66.8624L28.3485 82.5812H10.0319V82.5816ZM97.9898 32.3795L88.8314 16.6606L97.9901 0.941876H116.307L125.465 16.6606L116.307 32.3794H97.9898V32.3795Z" fill="#0095A8"/>
</svg>
