<svg width="56" height="56" viewBox="0 0 56 56" fill="none" xmlns="http://www.w3.org/2000/svg">
<rect width="56" height="56" rx="16" fill="#1E2235"/>
<path d="M20.3249 33.986C20.2907 33.986 20.2821 33.9689 20.2992 33.9432L20.4787 33.7124C20.4958 33.6868 20.5386 33.6697 20.5727 33.6697H23.6242C23.6584 33.6697 23.6669 33.6953 23.6498 33.721L23.5045 33.9432C23.4874 33.9689 23.4447 33.9945 23.4191 33.9945L20.3249 33.986ZM19.0342 34.7723C19 34.7723 18.9915 34.7552 19.0085 34.7296L19.188 34.4988C19.2051 34.4732 19.2479 34.4561 19.2821 34.4561H23.1797C23.2139 34.4561 23.231 34.4817 23.2225 34.5074L23.1541 34.7125C23.1455 34.7467 23.1114 34.7638 23.0772 34.7638L19.0342 34.7723ZM21.1027 35.5587C21.0685 35.5587 21.06 35.5331 21.077 35.5074L21.1967 35.2937C21.2138 35.2681 21.248 35.2424 21.2822 35.2424H22.9917C23.0259 35.2424 23.043 35.2681 23.043 35.3023L23.0259 35.5074C23.0259 35.5416 22.9917 35.5672 22.966 35.5672L21.1027 35.5587ZM29.975 33.8321C29.4365 33.9689 29.069 34.0714 28.539 34.2082C28.4108 34.2424 28.4023 34.2509 28.2912 34.1227C28.1629 33.9774 28.0689 33.8834 27.8894 33.7979C27.3509 33.5329 26.8295 33.6099 26.3423 33.9261C25.7611 34.3022 25.4619 34.8578 25.4705 35.5502C25.479 36.234 25.9491 36.7981 26.6244 36.8921C27.2056 36.969 27.6928 36.7639 28.0775 36.328C28.1544 36.234 28.2228 36.1314 28.3082 36.0117H26.6586C26.4791 36.0117 26.4363 35.9006 26.4962 35.7553C26.6073 35.4903 26.8124 35.0459 26.9321 34.8236C26.9577 34.7723 27.0176 34.6869 27.1458 34.6869H30.2571C30.24 34.9176 30.24 35.1484 30.2058 35.3792C30.1118 35.9946 29.881 36.5588 29.5049 37.0545C28.8895 37.8665 28.086 38.3708 27.0689 38.5076C26.2312 38.6187 25.4534 38.4563 24.7696 37.9435C24.1371 37.4648 23.7781 36.8323 23.684 36.0459C23.5729 35.1142 23.8464 34.2766 24.4106 33.5415C25.0175 32.7466 25.8209 32.2423 26.8039 32.0628C27.6074 31.9175 28.3766 32.0115 29.069 32.4816C29.522 32.7808 29.8468 33.191 30.0605 33.6868C30.1118 33.7637 30.0776 33.8065 29.975 33.8321Z" fill="#00ACD7"/>
<path d="M32.8042 38.5589C32.0264 38.5418 31.3169 38.3196 30.7186 37.8067C30.2143 37.3708 29.8981 36.8152 29.7955 36.157C29.6416 35.1912 29.9066 34.3364 30.4878 33.5757C31.1118 32.7551 31.864 32.3278 32.8811 32.1483C33.753 31.9944 34.5735 32.0799 35.3172 32.5842C35.9924 33.0457 36.4113 33.6697 36.5224 34.4903C36.6677 35.6442 36.3343 36.5844 35.5394 37.3879C34.9753 37.9606 34.2829 38.3196 33.488 38.482C33.2572 38.5247 33.0264 38.5332 32.8042 38.5589V38.5589ZM34.8385 35.1057C34.83 34.9946 34.83 34.9091 34.8129 34.8236C34.659 33.9774 33.8812 33.4988 33.0692 33.6868C32.2743 33.8663 31.7614 34.3706 31.5734 35.1741C31.4195 35.8408 31.7443 36.516 32.3597 36.7896C32.8299 36.9947 33.3 36.9691 33.753 36.7383C34.4282 36.3878 34.7958 35.8408 34.8385 35.1057V35.1057Z" fill="#00ACD7"/>
<path d="M14.44 28.032C14.1947 28.1173 13.896 28.16 13.544 28.16C12.6587 28.16 12.008 27.9307 11.592 27.472C11.1867 27.0027 10.984 26.2827 10.984 25.312V20.64H9.256V19.984L12.296 16.448H12.904V19.984H15.784V20.64H12.904V25.504C12.904 26.368 13.32 26.8 14.152 26.8C14.376 26.8 14.5893 26.752 14.792 26.656C15.0053 26.56 15.2667 26.3893 15.576 26.144L16.056 26.752L14.44 28.032ZM30.1049 20L26.5369 28H25.3209L23.6569 23.92L21.5929 28H20.3769L17.8809 21.904L16.3929 21.04V20.544L19.1289 19.2L19.7369 21.616L21.6889 26.368L23.2569 22.992L22.8089 21.904L21.3209 21.04V20.544L24.0569 19.2L24.6649 21.616L26.5689 26.24L28.4889 21.76L26.2649 20.144L26.5849 19.504H30.1049V20ZM35.3909 28H30.9269V27.504L32.3509 26.384V21.712L30.9269 20.72V20.224L33.6629 19.2H34.2709V26.8L35.7109 27.36L35.3909 28ZM33.2469 14.4C33.5669 14.4 33.8282 14.5173 34.0309 14.752C34.2442 14.9867 34.3509 15.28 34.3509 15.632C34.3509 15.8773 34.2762 16.112 34.1269 16.336C33.9775 16.5493 33.7909 16.72 33.5669 16.848C33.3429 16.976 33.1242 17.04 32.9109 17.04C32.5909 17.04 32.3242 16.9227 32.1109 16.688C31.9082 16.4533 31.8069 16.16 31.8069 15.808C31.8069 15.5627 31.8815 15.3333 32.0309 15.12C32.1802 14.896 32.3669 14.72 32.5909 14.592C32.8149 14.464 33.0335 14.4 33.2469 14.4ZM45.5776 28H43.1936L40.6816 24.64L38.9056 26.304L40.3936 27.376L40.0736 28.016H36.5696V27.52L40.2336 24.032L37.9136 21.024L36.5056 20.144L36.8256 19.504H39.2096L41.6896 22.816L43.4016 21.216L41.9136 20.144L42.2336 19.504H45.7376V20L42.1376 23.424L44.4736 26.464L45.8976 27.36L45.5776 28ZM49.0363 25.52C49.3563 25.52 49.6176 25.6373 49.8203 25.872C50.0336 26.1067 50.1403 26.4 50.1403 26.752C50.1403 26.9973 50.0656 27.232 49.9163 27.456C49.7669 27.6693 49.5803 27.84 49.3563 27.968C49.1323 28.096 48.9136 28.16 48.7003 28.16C48.3803 28.16 48.1136 28.0427 47.9003 27.808C47.6976 27.5733 47.5963 27.28 47.5963 26.928C47.5963 26.6827 47.6709 26.4533 47.8203 26.24C47.9696 26.016 48.1563 25.84 48.3803 25.712C48.6043 25.584 48.8229 25.52 49.0363 25.52Z" fill="white"/>
</svg>
