<svg width="126" height="126" viewBox="0 0 126 126" fill="none" xmlns="http://www.w3.org/2000/svg">
<path d="M105.202 78.5304C103.89 77.969 101.049 79.4625 97.6879 82.0036L78.416 62.7318L97.6892 43.4587C101.05 45.999 103.89 47.4921 105.202 46.9306C109.869 44.9306 127.864 2.93535 125.197 0.268501C122.531 -2.40056 80.5353 15.597 78.5354 20.2637C77.9731 21.5755 79.4656 24.4152 82.0057 27.7752L62.7324 47.0483L43.4593 27.7752C45.9994 24.4149 47.4918 21.5753 46.9296 20.2637C44.9299 15.597 2.93478 -2.40043 0.268193 0.268501C-2.39852 2.93535 15.5967 44.9305 20.2634 46.9306C21.5755 47.4921 24.4154 45.999 27.7762 43.4585L47.0494 62.7317L27.7776 82.0035C24.4163 79.4624 21.5755 77.9689 20.2633 78.5304C15.5963 80.5305 -2.39852 122.526 0.268062 125.193C2.93478 127.862 44.9301 109.864 46.93 105.197C47.4922 103.886 46.0003 101.047 43.4608 97.6874L62.7324 78.4154L82.0044 97.6874C79.4651 101.047 77.9733 103.886 78.5352 105.197C80.535 109.864 122.53 127.862 125.197 125.193C127.864 122.526 109.869 80.5305 105.202 78.5306L105.202 78.5304Z" fill="#0095A8"/>
</svg>
